<svg width="28" height="26" viewBox="0 0 28 26" fill="none" xmlns="http://www.w3.org/2000/svg">
<g clip-path="url(#clip0_303_605)">
<path d="M27.9993 1.30027C27.9764 1.47682 27.936 1.65053 27.8785 1.81869C27.7976 1.98359 27.6921 2.13472 27.566 2.26676C27.3732 2.48321 27.1592 2.67154 26.9568 2.87393C26.7205 3.11095 26.4843 3.34797 26.2522 3.58824C26.0202 3.82851 25.7659 4.1045 25.518 4.35667C25.2892 4.58937 25.0508 4.81123 24.8209 5.04393C24.627 5.23982 24.4437 5.44654 24.2498 5.64352C24.0189 5.87838 23.7805 6.10675 23.5495 6.3416C23.3567 6.53858 23.1723 6.7453 22.9784 6.94228C22.7475 7.17822 22.5091 7.4055 22.2781 7.64036C22.0842 7.83734 21.9009 8.04405 21.7071 8.24103C21.4761 8.47697 21.2377 8.70425 21.0067 8.94019C20.8129 9.13717 20.6296 9.34281 20.4357 9.53979C20.2047 9.77573 19.9663 10.003 19.7354 10.2389C19.5415 10.4348 19.3571 10.6405 19.1643 10.8375C18.9333 11.0734 18.696 11.3018 18.465 11.5366C18.2712 11.7336 18.0868 11.9392 17.894 12.1362C17.663 12.3711 17.4246 12.5994 17.1947 12.8354C17.0008 13.0324 16.8154 13.2369 16.6226 13.4339C16.3916 13.6698 16.1533 13.8982 15.9223 14.1341C15.7295 14.3311 15.5451 14.5367 15.3512 14.7326C15.1393 14.9491 14.919 15.1656 14.6891 15.369C14.6054 15.4415 14.4772 15.4589 14.3776 15.5162C14.2112 15.6126 14.0332 15.5909 13.8605 15.5779C13.5807 15.5568 13.3176 15.4339 13.1189 15.2316C12.9388 15.0541 12.7587 14.8766 12.5817 14.6958C12.3868 14.4978 12.1982 14.2943 12.0033 14.0973C11.7723 13.8614 11.5371 13.632 11.3061 13.396C11.1122 13.1979 10.9247 12.9934 10.7308 12.7943C10.555 12.6124 10.3727 12.4371 10.2011 12.2531C9.95423 11.9988 9.71161 11.7401 9.45945 11.4879C9.23166 11.2552 8.99645 11.029 8.7676 10.7953C8.5716 10.595 8.38301 10.3861 8.18701 10.1838C8.01326 10.0063 7.83314 9.83417 7.65727 9.65668C7.46126 9.45753 7.27162 9.2519 7.07561 9.05275C6.84571 8.81898 6.61262 8.58953 6.38271 8.35684C6.13585 8.10683 5.89323 7.85357 5.64743 7.59923C5.46838 7.41632 5.28615 7.23558 5.10709 7.05159C4.92804 6.8676 4.73098 6.6598 4.54027 6.46607C4.30507 6.22688 4.06563 5.99202 3.83254 5.75067C3.59945 5.50932 3.34624 5.22467 3.0909 4.96925C2.86523 4.73872 2.62579 4.52334 2.39906 4.2939C2.20199 4.09367 2.0187 3.87938 1.8227 3.67915C1.59385 3.44646 1.35335 3.22567 1.12556 2.9919C0.83632 2.69751 0.546022 2.40313 0.277973 2.09359C0.185798 1.98536 0.149778 1.83492 0.0819711 1.70721C0.00216856 1.5447 -0.0238573 1.36012 0.00780601 1.18121C0.0328471 0.881293 0.164352 0.60107 0.377564 0.393301C0.480961 0.281693 0.60293 0.189717 0.737791 0.121647C1.01162 -0.0201168 1.32915 -0.0457863 1.6214 0.0502149C1.81221 0.111012 1.98962 0.209159 2.14373 0.339186C2.29205 0.469062 2.41283 0.630324 2.55268 0.772105C2.83769 1.06 3.12904 1.34031 3.41404 1.6282C3.60581 1.82085 3.7891 2.02324 3.97874 2.21697C4.21077 2.45399 4.44916 2.6856 4.68013 2.92371C4.92911 3.1813 5.16855 3.44862 5.42176 3.70513C5.64743 3.93566 5.88687 4.15212 6.1136 4.38156C6.30855 4.57854 6.4929 4.78743 6.68784 4.98549C6.91563 5.21818 7.15084 5.44438 7.37968 5.67707C7.57463 5.87513 7.76322 6.07969 7.9571 6.27775C8.13298 6.45957 8.31415 6.63599 8.48685 6.8189C8.73265 7.06999 8.97633 7.32216 9.22213 7.5765C9.40224 7.75941 9.58553 7.94016 9.76458 8.12415C9.94363 8.30814 10.1439 8.5246 10.3378 8.72266C10.5666 8.95643 10.8008 9.18696 11.0307 9.42073C11.2606 9.65451 11.5201 9.924 11.7649 10.1783C11.945 10.3623 12.1283 10.542 12.3063 10.726C12.4843 10.91 12.6866 11.1275 12.8795 11.3245C13.1083 11.5594 13.3425 11.7888 13.5724 12.0226C13.6868 12.1384 13.8033 12.2531 13.9093 12.3765C13.9654 12.4425 14.0152 12.4382 14.064 12.3862C14.3256 12.1243 14.5937 11.8646 14.848 11.5994C15.0397 11.4035 15.223 11.1989 15.4148 11.0031C15.6458 10.7671 15.8831 10.5377 16.1151 10.3039C16.3048 10.1112 16.4902 9.91426 16.6798 9.72161C16.9161 9.48026 17.1566 9.24324 17.3929 9.00189C17.5814 8.80816 17.7647 8.60901 17.9533 8.41636C18.1875 8.17718 18.4258 7.94448 18.6589 7.70529C18.9069 7.44879 19.1452 7.18471 19.3953 6.93037C19.622 6.69876 19.8625 6.47905 20.0903 6.24852C20.2863 6.04938 20.4696 5.83725 20.6645 5.63703C20.8923 5.40542 21.1286 5.18246 21.3564 4.95194C21.5513 4.75604 21.7378 4.55257 21.9317 4.35559C22.1637 4.11965 22.401 3.88696 22.6341 3.64993C22.7718 3.50923 22.9022 3.35988 23.0399 3.21701C23.274 2.97783 23.5135 2.74621 23.7466 2.50703C23.9945 2.25052 24.2318 1.98536 24.4818 1.73102C24.7086 1.49833 24.9491 1.2797 25.1769 1.04809C25.3729 0.84895 25.5551 0.635736 25.7511 0.437676C25.913 0.268321 26.1115 0.14007 26.3306 0.063202C26.5452 -0.00954636 26.7753 -0.0201444 26.9955 0.032584C27.2156 0.0853124 27.4171 0.199307 27.5777 0.361917C27.6971 0.481357 27.7957 0.620827 27.869 0.774271C27.9289 0.944933 27.9725 1.12107 27.9993 1.30027Z" fill="black"/>
<path d="M27.9725 11.7797C27.9537 12.1201 27.804 12.439 27.5561 12.6672C27.3548 12.8707 27.1545 13.0763 26.9522 13.2798C26.7223 13.5114 26.4892 13.7397 26.2603 13.9735C26.0654 14.1727 25.8757 14.3794 25.6808 14.5785C25.452 14.8112 25.2178 15.0385 24.989 15.2712C24.793 15.4703 24.6044 15.6771 24.4094 15.8762C24.1806 16.11 23.9464 16.3373 23.7186 16.571C23.5226 16.7702 23.3341 16.9758 23.138 17.1749C22.9092 17.4087 22.6751 17.636 22.4473 17.8698C22.2513 18.0689 22.0616 18.2746 21.8667 18.4748C21.6378 18.7075 21.4037 18.9348 21.1748 19.1685C20.9799 19.3677 20.7902 19.5733 20.5953 19.7735C20.3664 20.0062 20.1323 20.2335 19.9035 20.4673C19.7085 20.6664 19.5189 20.8721 19.3239 21.0712C19.0951 21.305 18.8609 21.5323 18.6331 21.7661C18.4371 21.9652 18.2475 22.1708 18.0525 22.3711C17.8237 22.6037 17.5895 22.831 17.3618 23.0648C17.1658 23.264 16.9761 23.4696 16.7812 23.6687C16.5523 23.9025 16.3192 24.1309 16.0893 24.3636C15.8965 24.5595 15.7058 24.7586 15.514 24.9567C15.2682 25.211 15.0309 25.4751 14.7724 25.7143C14.6606 25.7994 14.5335 25.8612 14.3984 25.8961C14.2643 25.9376 14.1281 25.9719 13.9905 25.9989C13.7108 25.9867 13.4413 25.8887 13.2171 25.7175C13.0603 25.6093 12.9437 25.4426 12.807 25.3041C12.5718 25.0649 12.3313 24.8311 12.0993 24.5887C11.8503 24.3311 11.6141 24.0627 11.3577 23.8073C11.0239 23.4663 10.6785 23.1395 10.3448 22.7986C10.0407 22.489 9.74725 22.1676 9.44636 21.8537C9.18573 21.5831 8.92227 21.3144 8.65598 21.0474C8.32013 20.7108 7.97686 20.3818 7.64312 20.042C7.39202 19.7876 7.15576 19.517 6.90148 19.2595C6.53384 18.8796 6.15985 18.5018 5.79009 18.1285C5.52204 17.8557 5.26035 17.5808 4.99124 17.307C4.77934 17.0905 4.5738 16.8741 4.35555 16.6663C4.1373 16.4585 3.89043 16.2204 3.66371 15.9909C3.46664 15.7907 3.28335 15.5775 3.08629 15.3762C2.85744 15.1435 2.61694 14.9227 2.38915 14.6889C2.14017 14.4324 1.90497 14.1629 1.65387 13.9075C1.32119 13.5677 0.975797 13.2397 0.64312 12.8999C0.48964 12.7438 0.345305 12.5787 0.210856 12.4053C0.157298 12.3119 0.110554 12.2146 0.0710035 12.1141C-0.00516628 11.9551 -0.0317931 11.7761 -0.00528261 11.6011C0.0216096 11.3206 0.133554 11.0556 0.314935 10.8431C0.496316 10.6307 0.738086 10.4814 1.00652 10.416C1.20035 10.3482 1.41243 10.3602 1.59771 10.4496C1.73023 10.5039 1.85938 10.5664 1.98443 10.6368C2.12399 10.748 2.25569 10.8692 2.37855 10.9994C2.56078 11.1747 2.74195 11.3511 2.92101 11.5308C3.10006 11.7104 3.24945 11.8674 3.41155 12.0373C3.60437 12.2408 3.79085 12.4496 3.98579 12.651C4.18074 12.8523 4.39899 13.0622 4.60453 13.2689C4.83655 13.5006 5.06858 13.7322 5.29742 13.967C5.54534 14.2203 5.78902 14.479 6.03906 14.7322C6.26791 14.966 6.50206 15.1922 6.73091 15.4249C6.92585 15.6229 7.1155 15.8264 7.30939 16.0245C7.48526 16.2063 7.66643 16.3827 7.83913 16.5656C8.08705 16.82 8.33073 17.0775 8.58077 17.3308C8.7577 17.5115 8.94098 17.6869 9.11898 17.8719C9.3118 18.0689 9.49934 18.2713 9.69216 18.4694C9.92101 18.7032 10.1552 18.9326 10.384 19.1675C10.6319 19.4218 10.8756 19.6794 11.1256 19.9326C11.3026 20.1145 11.4869 20.2887 11.6639 20.4738C11.8567 20.6708 12.0442 20.8742 12.237 21.0712C12.4659 21.3061 12.7 21.5355 12.9299 21.7693C13.1779 22.0236 13.4226 22.2801 13.6716 22.5356C13.7542 22.6221 13.8316 22.7163 13.9216 22.7942C13.9422 22.8046 13.965 22.8095 13.988 22.8086C14.0109 22.8076 14.0333 22.8008 14.053 22.7888C14.1918 22.6633 14.321 22.5269 14.4535 22.3938C14.6357 22.2098 14.8201 22.0269 15.0012 21.8407C15.139 21.699 15.2693 21.5507 15.4081 21.4078C15.6412 21.1697 15.8806 20.937 16.1126 20.6967C16.3446 20.4565 16.6 20.1762 16.849 19.9218C17.0768 19.6902 17.3162 19.4716 17.544 19.24C17.74 19.0408 17.9233 18.8287 18.1182 18.6285C18.346 18.3969 18.5823 18.175 18.8111 17.9445C19.0029 17.7518 19.1894 17.5527 19.3801 17.3589C19.6153 17.1187 19.8537 16.8827 20.0889 16.6425C20.2234 16.5039 20.3537 16.36 20.4893 16.2225C20.7256 15.9812 20.9661 15.7442 21.2003 15.5006C21.4344 15.2571 21.6866 14.979 21.9355 14.7246C22.1633 14.4919 22.4038 14.2744 22.6316 14.0428C22.8276 13.8436 23.0099 13.6304 23.2048 13.4313C23.4326 13.1997 23.671 12.9789 23.8988 12.7484C24.0937 12.5525 24.2781 12.3468 24.4709 12.1499C24.7008 11.915 24.936 11.6855 25.1659 11.4518C25.3068 11.3078 25.4403 11.1563 25.5802 11.0113C25.7613 10.824 25.9287 10.6119 26.1756 10.5123C26.4514 10.3861 26.7625 10.3658 27.0518 10.455C27.3064 10.5422 27.5343 10.696 27.7129 10.9009C27.804 10.9983 27.8305 11.1574 27.8951 11.284C27.9633 11.4394 27.99 11.6104 27.9725 11.7797Z" fill="black"/>
</g>
<defs>
<clipPath id="clip0_303_605">
<rect width="28" height="26" fill="white"/>
</clipPath>
</defs>
</svg>
