<?xml version="1.0" standalone="no"?>
<!DOCTYPE svg PUBLIC "-//W3C//DTD SVG 20010904//EN"
 "http://www.w3.org/TR/2001/REC-SVG-20010904/DTD/svg10.dtd">
<svg version="1.0" xmlns="http://www.w3.org/2000/svg"
 width="58.000000pt" height="69.000000pt" viewBox="0 0 58.000000 69.000000"
 preserveAspectRatio="xMidYMid meet">

<g transform="translate(0.000000,69.000000) scale(0.100000,-0.100000)"
fill="#000000" stroke="none">
<path d="M70 590 l0 -30 235 0 235 0 0 30 0 30 -235 0 -235 0 0 -30z"/>
<path d="M70 275 l0 -235 30 0 30 0 0 205 0 205 25 0 c24 0 25 -2 25 -70 l0
-70 125 0 125 0 0 35 0 35 -95 0 -95 0 0 35 0 35 150 0 150 0 0 30 0 30 -235
0 -235 0 0 -235z"/>
<path d="M180 155 l0 -115 30 0 30 0 0 80 0 80 95 0 95 0 0 35 0 35 -125 0
-125 0 0 -115z"/>
</g>
</svg>
