<svg width="60" height="50" fill="none" xmlns="http://www.w3.org/2000/svg"><g clip-path="url(#clip0_135_1726)"><path d="M43.352 4.917c-.415-.174-.816-.37-1.23-.54-.693-.292-1.385-.59-2.081-.877-2.203-.908-4.413-.882-6.646-.092-1.61.57-3.244 1.05-4.942 1.28a9.725 9.725 0 01-5.365-.758c-1.045-.464-2.08-.951-3.136-1.388a14.479 14.479 0 00-5.765-1.086c-.222.04-.448.045-.671.018-.254-.015-.335.11-.35.335-.008.153-.007.306-.008.46 0 1.84.01 3.68 0 5.52 0 .54-.183.754-.707.85-.446-.061-.647-.346-.697-.778a4.855 4.855 0 01-.026-.577V2.475c.01-.153.001-.308-.024-.46-.03-.13-.065-.26-.246-.203a13.233 13.233 0 00-5.194 2.555l-.586.475c-.282.211-.283.294.033.467.514.27.95.676 1.262 1.175 1.161 1.863.14 4.423-1.972 4.89-1.016.225-1.941.037-2.752-.648a1.013 1.013 0 00-.348-.224c-.295.047-.194.345-.31.506a24.349 24.349 0 00-1.167 4.516c-.595 4.034-.68 8.05.559 11.99 1.435 4.563 4.555 7.17 9.118 8.04 2.776.529 5.549.346 8.316-.113 1.61-.268 3.193-.66 4.772-1.068.11-.028.223-.04.333-.06.183-.043.436-.021.315-.35-.516-1.843.38-3.534 1.978-4.118a.52.52 0 00.298-.219.54.54 0 00.083-.366c-.033-.61.096-1.229-.096-1.832-.05-.157.046-.218.172-.226.4-.024.803-.024 1.203 0 .168.01.197.1.139.26-.229.648-.09 1.316-.096 1.977 0 .19.146.287.305.353.254.106.508.235.747.366a3.2 3.2 0 011.002 1.016 3.3 3.3 0 01.314 2.794c-.158.46-.414.878-.751 1.222-.106.11-.216.214-.322.323-.105.11-.14.184-.02.29.603.294 1.206.584 1.802.893a.341.341 0 00.316.047c.97-1.322 2.379-2.053 3.723-2.862 1.512-.908 3.083-1.708 4.654-2.503.144-.073.306-.123.395-.28.024-.158-.1-.222-.193-.302a3.991 3.991 0 01-1.143-1.543c-.119-.2-.322-.282-.507-.375a12.491 12.491 0 01-2.305-1.384 3.793 3.793 0 01-.769-.787c-.38-.537-.254-1.024.347-1.262.693-.272 1.419-.287 2.152-.229.7.056 1.396.16 2.09.244a.736.736 0 00.272-.13c1.292-.822 2.56-.736 3.809.112a3.54 3.54 0 011.032 1.372c.056.13.075.31.287.277a.803.803 0 00.254-.375c.587-1.325 1.046-2.692 1.225-4.15a1.524 1.524 0 00-.314-1.178c-.975-1.275-.984-2.837-.067-4.096.101-.148.224-.28.364-.39a.788.788 0 011.04.014c.458.372.715.884.922 1.426.14.372.217.764.35 1.137.065.18.127.39.35.408.224.018.333-.16.43-.323.273-.491.59-.954.95-1.383.99-1.1 2.152-1.889 3.636-2.063.508-.06 1.025-.088 1.531-.179a6.268 6.268 0 002.158-.76c.277-.17.346-.093.413.194.236 1.011.465 2.022.414 3.074a.55.55 0 00.072.37c1.322-.943 1.8-2.168 1.355-3.89a7.489 7.489 0 01-.166-2.578c.254-3.057-1.634-6.525-5.42-7.292a8.532 8.532 0 00-3.142-.026c-.135.022-2.128.794-4.335.41.002 0-2.194-.013-3.423-.524z" fill="#09112B"/><path d="M39.67 31.076c-1.97 1.009-3.942 2.01-5.834 3.166-.817.501-1.628 1.012-2.34 1.668-.242.224-.925 1.354-1.034 1.65a19.586 19.586 0 00-.828 2.846c-.064.225-.253 1.35-.303 1.465-.075.172-.452 2.772-.452 2.772-.067.41-.286 2.617-.227 2.926 0 .063.014.616.076.618a.686.686 0 00.368.035h6.428c.19-.066.167-.24.169-.389.026-2.91-.056-5.812-.828-8.642a9.901 9.901 0 00-.809-2.057c.629 1.15.955 2.404 1.186 3.687.407 2.25.477 4.524.467 6.805 0 .203-.185.592.155.591h8.835c.187-.062.082-.179.036-.267a2.6 2.6 0 00-.388-.519c-.52-.583-.6-1.282-.492-2.012.162-1.073.395-2.135.48-3.219.045-.594-.048-1.145-.5-1.584a30.371 30.371 0 01-.989-1 3.522 3.522 0 01-.973-2.464c-.01-1.685.168-3.371.153-5.057 0-.209.055-.443-.152-.603-.202-.088-.418-.039-.627-.066a3.98 3.98 0 01-1.158-.284c-.13-.055-.262-.156-.42-.066z" fill="#FEFEFE"/><path d="M58.482 18.822c.157-1.358-.19-2.647-.516-3.98-.84.55-1.79.904-2.779 1.038-.47.07-.952.072-1.422.153-1.904.325-3.28 1.45-4.302 3.077-.095.151-.175.31-.27.461-.075.118-.155.26-.308.26-.152 0-.205-.175-.253-.308a7.923 7.923 0 01-.158-.552 4.876 4.876 0 00-.85-1.826c-.578-.723-1.203-.72-1.788 0-1.016 1.262-1.051 2.885-.013 4.287.31.419.35.812.282 1.283a14.644 14.644 0 01-1.396 4.363.213.213 0 00.085.154c.816.45 1.674.824 2.412 1.416.338.265.645.57.913.908.426.556.284 1.058-.367 1.297-.813.294-1.65.225-2.496.179-.381-.021-.762-.188-1.143-.046-.092.166.017.299.081.428a27.762 27.762 0 011.88 4.65c.035.11.089.214.158.305.49.715.995 1.416 1.548 2.084.36.428.768.812 1.216 1.142.04.031.084.059.127.084.905.563 1.728.31 2.158-.675.303-.689.407-1.426.462-2.17-.118-1.027-.438-2.007-.674-3.008-.117-.494-.32-.963-.389-1.47-.01-.143-.127-.2-.215-.282-.224-.193-.437-.398-.488-.717a4.48 4.48 0 010-1.202c.108-1.108.478-2.086 1.354-2.807.313-.26.634-.244.97-.024.446.293.8.698 1.217 1.025.297.232.622.419.993.406a.959.959 0 00.521-.143.988.988 0 00.367-.404c.231-.46.314-.97.481-1.451.11-.313.201-.637.522-.812.149-.08.145-.26.216-.39a.66.66 0 01.22-.335.876.876 0 00.105-.62c-.09-.519.036-.737.508-.978.235-.119.48-.216.717-.33.295-.143.403-.378.288-.693-.127-.359-.273-.713-.41-1.07a1.596 1.596 0 01-.153-.587 1.522 1.522 0 010-.717c.127-.506.39-.942.589-1.403z" fill="#ECB37C"/><path d="M58.356 48.182c.36-.162.06-2.075 0-2.31-.025-.027-.093-1.388-.152-1.618-.025-.027-.254-2.364-.34-2.84-.08-.416-.262-1.344-.262-1.396a2.77 2.77 0 00-.92-1.797c-.586-.533-2.2-2.146-2.437-2.4-.313-.308-.61-.635-.929-.937-.241-.16-.411-.398-.627-.584-.089-.077-.174-.235-.328-.087.078.485.412.837.625 1.252.498.965 1.03 1.909 1.413 2.93a3.2 3.2 0 01-.147 2.606c-.826 1.703-.666 1.62-.066 3.18.331.863.528 1.736.308 2.663-.099.386-.267.75-.496 1.072-.057.086-.469.309.019.306 1.311-.008 2.621 0 3.935 0 .134-.005.273.03.404-.04z" fill="#FEFEFE"/><path d="M3.624 4.904a4.527 4.527 0 011.284 0h.05c.144.062.619.197.634.203a.925.925 0 00.184.12c1.27.713 1.858 1.816 1.77 3.29a3.318 3.318 0 01-.683 1.78c-.396.51-.932.888-1.539 1.086-1.307.425-2.465.14-3.427-.879-.17-.022-.555-.75-.68-.979-.138-.293-.16-.614-.226-.926v-.77a3.352 3.352 0 01.84-1.91 3.231 3.231 0 011.793-1.015zm42.68 31.424c-.254-.707-.49-1.418-.751-2.12a31.949 31.949 0 00-1.446-3.2.189.189 0 00-.139-.13.181.181 0 00-.177.063.513.513 0 00.103.36c1.763 3.33 2.76 6.895 3.138 10.654.135 1.443.178 2.893.127 4.342a15.66 15.66 0 01-.222 2.334 1.676 1.676 0 01-.127.443c-.117.244-.315.337-.518.159-.867-.766-1.67-1.595-2.214-2.642-.127-.26-.096-.55-.059-.833.127-.967.316-1.924.45-2.889a6.94 6.94 0 00.034-1.305 1.713 1.713 0 00-.484-1.06c-.372-.417-.827-.744-1.177-1.189-.65-.828-.87-1.778-.8-2.812.059-.856.142-1.712.128-2.57-.008-.649.04-1.282.076-1.92.01-.189.034-.39-.09-.56-.127-.057-.254-.104-.325.086.127.109.078.26.085.395.053 1.127-.065 2.251-.097 3.372-.016.625-.05 1.251-.05 1.877a3.528 3.528 0 001.015 2.523c.307.321.612.648.936.949.486.452.53 1.01.494 1.64-.073 1.2-.407 2.359-.497 3.556-.053.714.227 1.261.642 1.78.144.178.28.36.418.54.04.13.172.18.241.285.31.315.616.638.932.948.316.31.575.348.946.16l.072-.075c.201-.275.247-.603.304-.926.06-.214.093-.434.157-.648.43-3.672.045-7.279-.839-10.844a4.273 4.273 0 00-.286-.743z" fill="#E5E5E5"/><path d="M53.916 48.176c1.002-1.214.915-2.546.405-3.922a11.8 11.8 0 00-.356-.887c-.254-.564-.216-1.106.056-1.652.31-.625.597-1.248.67-1.976.06-.62-.11-1.167-.325-1.698-.5-1.247-1.162-2.408-1.838-3.561a.676.676 0 01-.127-.315.129.129 0 00.038-.107c-.165-.16-.231-.46-.547-.407-.117.23.043.39.14.562.587 1.03 1.186 2.054 1.697 3.127.127.278.24.564.369.843.443.95.38 1.888-.069 2.814-.14.288-.27.58-.387.877-.178.443-.188.94-.026 1.39.148.437.34.855.49 1.296.332.96.465 1.92-.052 2.865-.216.392-.5.741-.838 1.03-.085.072-.187.151-.306.084-.1-.056-.098-.173-.1-.274 0-.462.053-.92.086-1.38a27.443 27.443 0 000-3.262 41.626 41.626 0 00-.514-4.733c-.315-1.91-.739-3.8-1.27-5.659a.303.303 0 01-.028-.187c.127.05.203.195.358.166.076-.027.09-.088.042-.142a6.681 6.681 0 00-.762-.763c-.043-.038-.091-.013-.127.02.059.667.35 1.274.488 1.921.188.873.479 1.721.575 2.613.231 1.853.612 3.685.752 5.551.14 1.763.149 3.534.024 5.298-.026.35-.254.36-.508.361H48.01c-.187 0-.381-.023-.554.074a.084.084 0 00-.03.12h4.547c.264 0 .448.042.517.363.068.32.354.41.66.293.25-.091.462-.265.604-.493.083-.071.161-.134.161-.25z" fill="#E5E6E5"/><path d="M28.998 35.483c1.679-1.517 1.51-4.178-.346-5.377-.12.154-.043.32-.012.474.158.79-.033 1.511-.39 2.205-.073.141-.208.26-.15.45.104.122.247.108.38.109.213.002.425.021.635.058.662.114.705.195.42.81a3.05 3.05 0 01-.71.953 2.994 2.994 0 01-1.015.602 2.933 2.933 0 01-2.296-.155c-.143-.074-.268-.196-.444-.19-.135.04-.156.113-.052.208.073.065.178.085.238.17.782.533 1.63.552 2.505.327.254-.067.49-.178.736-.269.089-.08.42-.3.501-.375z" fill="#76D7D3"/><path d="M11.606.763c.607.01 1.22-.103 1.822.06a.36.36 0 01-.245.11 4.462 4.462 0 01-.895-.032c.261 0 .266.252.268.485.008 1.102.006 2.205 0 3.31a.623.623 0 01-.083.368c-.418.093-.474.389-.453.769.027.534.027 1.07 0 1.605-.02.436.056.807.444 1.053a.21.21 0 01-.023.253c-.558-.074-.79-.36-.792-.999V2.17a.848.848 0 000-.259.437.437 0 000-.058v-.048c.009-.055.017-.11.022-.164a.37.37 0 000-.064c.078-.168.035-.352-.108-.546-.094-.12-.163-.271.043-.267z" fill="#93E8E7"/><path d="M13.197.827c.146.072.137.19.086.319a.38.38 0 00.018.145.404.404 0 00-.018.065 1.05 1.05 0 00-.01.338c0 .053.009.105.01.158a1.303 1.303 0 000 .145c.02 1.946 0 3.897.018 5.845 0 .472-.381.972-.852.907v-.216a.43.43 0 01.181-.176.543.543 0 00.302-.494c0-.858.04-1.713-.016-2.57-.089-.218-.355-.059-.467-.231 0-1.24-.006-2.48.008-3.72 0-.29-.088-.388-.365-.365-.138.009-.312.075-.49-.145l1.595-.005z" fill="#77D7D3"/><path d="M35.818 48.18v-.693a40.425 40.425 0 00-.241-5.127c-.21-1.803-.547-3.584-1.396-5.217-.036-.067-.066-.139-.103-.205-.037-.066-.098-.176-.2-.113-.101.064-.011.15.027.222.797 1.493 1.15 3.112 1.396 4.78.306 2.11.305 4.229.291 6.354-.04.03-.04.057 0 .082h.146c.027-.032.073-.038.08-.084z" fill="#E6E6E6"/><path d="M25.257 35.799c.034-.175-.306-.113-.2-.334 0-.194-.152-.287-.263-.399a2.916 2.916 0 01-.605-.83.492.492 0 00-.172-.2.283.283 0 00-.254-.026c.136.288-.158.207-.248.301.254-.009.404.12.535.336.3.497.651.938 1.207 1.152z" fill="#84D9D3"/><path d="M47.277 48.567c-.1.309-.202.617-.303.926l.303-.926z" fill="#DAF3F2"/><path d="M1.212 9.527A4.617 4.617 0 00.988 8.6l.224.926z" fill="#D5F3F2"/><path d="M13.197.827a.612.612 0 01.086.32c.034-.114.261-.138.145-.324l-.231.004z" fill="#8FDFDB"/><path d="M43.809 30.944a.48.48 0 01.298.063c.821.074 1.64.2 2.47.156a3.978 3.978 0 001.284-.239c.646-.26.793-.74.418-1.342a3.461 3.461 0 00-.803-.855 11.51 11.51 0 00-2.687-1.584c-.24.104-.141.26-.065.416.401.326.862.563 1.26.894.152.111.281.251.381.412.214.379.127.631-.282.769a3.198 3.198 0 01-1.113.12 4.78 4.78 0 01-.562-.024 18.464 18.464 0 01-2.671-.551 16.071 16.071 0 01-3.616-1.467 4.89 4.89 0 01-1.225-.939c-.423-.47-.327-.786.29-.946.436-.119.893-.14 1.339-.063.147.035.298.039.447.013.171-.084.365-.142.38-.389-1.298-.236-2.602-.456-3.917-.162-1.125.253-1.33.953-.54 1.805.847.908 1.922 1.467 3.008 2.006.146.072.306.121.395.277 1.39.646 2.842 1.14 4.334 1.475.254.06.508.13.769.174.138.016.277.084.407-.02z" fill="#4C42DA"/><path d="M23.765 34.013l.24.073c.143-.148-.114-.417.116-.506.17-.066.368.036.55.071 1.11.213 2.19.032 3.261-.26a.307.307 0 00.193-.155c.198-.43.458-.826.576-1.297a3.77 3.77 0 00-.05-1.83 1.864 1.864 0 00-.769-.39c-.254-.062-.3-.194-.293-.431.015-.474 0-.947 0-1.427 0-.146-.007-.273.141-.396.183-.151.09-.378-.155-.39a17.945 17.945 0 00-1.43 0c-.244.01-.337.225-.16.39a.468.468 0 01.137.405c0 .474-.014.948 0 1.427.009.246-.075.345-.308.426-.807.27-1.48.85-1.878 1.617a3.418 3.418 0 00-.254 2.495 1.6 1.6 0 00.083.178z" fill="#94EAE9"/><path d="M39.355 25.387l-.372.313c-.557.355-1.046 1.467-.91 2.067a13.058 13.058 0 003.62 1.476c.398-.02.66-.3.91-.551a3.59 3.59 0 00.81-1.206c.185-.455.277-.945.269-1.437.01-.23-.053-.458-.18-.649-1.14-.984-2.801-.99-4.147-.013z" fill="#9A89FE"/><path d="M37.132 18.546c-.514-.706-.972-1.396-1.535-2.001a5.094 5.094 0 00-1.034-.889c-.837-.518-1.665-.5-2.473.059-.7.482-1.206 1.151-1.681 1.848-.159.23-.32.461-.458.704-.127.218-.202.248-.345 0a17.577 17.577 0 00-1.212-1.854c-.305-.39-.624-.779-1.078-.999a1.708 1.708 0 00-.393-.118.137.137 0 00-.127.047c-.033.072.02.13.089.13.594.054.55.483.547.921-.01 1.63-.015 3.258 0 4.886 0 .377-.074.618-.466.681-.071.013-.212.007-.174.14.038.134.152.065.23.047.435-.104.754-.39 1.045-.716.604-.677 1.055-1.464 1.533-2.231.046-.073.098-.143.17-.248.417.595.762 1.2 1.213 1.732.314.401.68.757 1.089 1.056.824.565 1.66.587 2.506.05.739-.47 1.28-1.143 1.8-1.836.254-.334.491-.678.75-1.037.443.617.852 1.232 1.337 1.787.462.529.951 1.027 1.65 1.226.097.028.195.048.294.06.058.008.127.018.15-.067a.107.107 0 00-.02-.09.103.103 0 00-.082-.04c-.302-.04-.659-.078-.812-.333-.174-.288-.058-.675-.06-1.017-.008-1.297 0-2.593 0-3.89 0-.638.09-.746.716-.877.098-.02.284.029.254-.137-.03-.166-.205-.078-.313-.055-.712.157-1.217.636-1.687 1.167-.516.579-.95 1.226-1.423 1.894z" fill="#00E79E"/><path d="M43.503 25.398a3.514 3.514 0 01-.53 2.697 3.755 3.755 0 01-1.28 1.148c.756.26 1.535.439 2.326.536l.408.054a2.658 2.658 0 00.363-2.277c-.055-.138-.146-.275 0-.413l-.07-.07c-.222-.288-.29-.661-.517-.95-.21-.266-.408-.541-.7-.726zm-.065 5.467a23.923 23.923 0 01-4.871-1.528c-.083-.035-.17-.14-.267-.022.23.77.783 1.281 1.369 1.764.687.332 1.396.532 2.168.462.094-.059.206-.08.313-.059.44.05 1.091-.262 1.288-.617z" fill="#7D77F4"/><path d="M15.812 13.543c.751-.224 1.11.194 1.403.826.273.589.64 1.13.945 1.704.037.086.1.158.18.205a.42.42 0 00.265.054c.841-.012 1.682.007 2.524-.012a.47.47 0 01.299.066c.09.055.16.139.198.238.173.341.37.669.56 1.001.04.069.074.195.188.118.114-.076.023-.157-.02-.23-.18-.322-.352-.65-.547-.963a.513.513 0 01-.01-.619c.431-.72.826-1.465 1.254-2.187a.508.508 0 00-.007-.593c-.439-.745-.853-1.508-1.287-2.256a.38.38 0 010-.45c.231-.38.443-.778.659-1.167.043-.078.164-.175.02-.253-.143-.078-.15.09-.194.162-.22.372-.442.746-.641 1.131a.407.407 0 01-.167.192.394.394 0 01-.247.053c-.853-.009-1.707 0-2.56-.009a.453.453 0 00-.282.06.468.468 0 00-.19.22c-.412.761-.854 1.507-1.27 2.268a.434.434 0 01-.182.206.42.42 0 01-.265.053 24.738 24.738 0 00-1.318 0c-.089 0-.246-.052-.254.08 0 .181.169.097.263.102.23.009.457 0 .683 0zm20.301-1.65a1.55 1.55 0 00.483-.925c.047-.326.273-.56.49-.8.744-.823.98-1.789.592-2.842-.368-.998-1.104-1.609-2.158-1.736-1.095-.13-1.967.29-2.57 1.236a2.71 2.71 0 00.316 3.291c.308.322.553.655.602 1.115a.51.51 0 00.12.278c.184.205.288.473.291.752.111 0 .093-.217.244-.147.289.124.605.163.914.114.148-.025.298-.02.443.013.217-.017.121-.255.233-.349z" fill="#E9C551"/><path d="M13.594 33.294c1.03 0 2.06-.009 3.091 0 .304 0 .418-.082.415-.41-.012-1.758 0-3.516-.006-5.274a1.975 1.975 0 00-.009-.23c-.007-.065-.029-.13-.107-.13-.077 0-.086.077-.09.14v.269c0 1.686-.007 3.362.007 5.043 0 .298-.07.389-.372.389-1.972-.014-3.945-.008-5.916-.008h-.264c-.088 0-.175-.01-.18.09 0 .13.107.12.192.121h3.239z" fill="#01DA97"/><path d="M18.041 20.92c-.736.26-1.253.73-1.412 1.546-.108.552.074 1.037.336 1.498a.132.132 0 00.055.141c.015.01.032.016.05.018.193.139.393.267.6.383.409.2.876.238 1.311.108.436-.13.809-.42 1.048-.813l.178-.29a.187.187 0 00.067-.206c.084-.66.018-1.283-.454-1.795a1.875 1.875 0 00-.713-.49 1.84 1.84 0 00-.853-.113.158.158 0 00-.213.013z" fill="#F358B8"/><path d="M12.835 19.77c-.04-.634-.35-1.13-.75-1.556-.71-.767-.488-.778-1.215 0-.302.31-.528.689-.662 1.105a1.416 1.416 0 00-.035.833c.073.274.226.52.439.703a1.204 1.204 0 001.396.22c.549-.25.796-.713.827-1.305z" fill="#92E7E6"/><path d="M12.068 29.438a.51.51 0 00.076 0c.75-.182.946-.114 1.26.888.025.072.043.147.067.22.239.732.435.829 1.142.56.65-.246.668-.244 1.128.28.175.199.336.414.508.62.039.047.09.102.156.046a.115.115 0 00.028-.133.114.114 0 00-.028-.038c-.294-.39-.578-.779-.975-1.061-.227-.164-.457-.065-.682.018-.872.319-.889.31-1.168-.61a3.909 3.909 0 00-.232-.606.77.77 0 00-.358-.382.747.747 0 00-.514-.061c-.897.141-1.167-.017-1.553-.873-.036-.079-.036-.26-.17-.2-.156.059-.043.199-.01.292.251.71.69 1.052 1.325 1.04z" fill="#F9F9FA"/><path d="M4.36 26.845c-.003.31.114.608.327.829.212.22.501.346.804.35a1.13 1.13 0 00.811-.335 1.18 1.18 0 00.26-1.27 1.17 1.17 0 00-.613-.637 1.123 1.123 0 00-1.247.24 1.17 1.17 0 00-.342.823zm11.905-2.29c-.207-.113-.396-.26-.65-.269a.97.97 0 00-.602.153.997.997 0 00-.394.49 1.028 1.028 0 00.317 1.16.974.974 0 001.178.021c.172-.126.3-.306.365-.513a1.029 1.029 0 00-.007-.634c-.028-.085-.065-.167-.098-.25-.01-.073-.02-.143-.109-.158z" fill="#E6C250"/><path d="M21.073 23.79c.012.086.021.172.025.26 0 .558.309.956.804 1.043.23.044.467.003.67-.115a1 1 0 00.438-.532c.08-.225.078-.472-.004-.695a1 1 0 00-.444-.527c-.438-.26-.924-.148-1.279.276l-.095.119c-.044.053-.109.092-.115.17z" fill="#F157B7"/><path d="M18.094 19.92c.455-.219.762-.547.725-1.095a1.02 1.02 0 00-.31-.649.98.98 0 00-1.32-.029 1.018 1.018 0 00.394 1.742c.098.02.197.033.297.04a.152.152 0 00.214-.01zM3.612 24.665a.76.76 0 00.12.416c.08.124.194.22.328.278a.718.718 0 00.798-.156.754.754 0 00.166-.814.745.745 0 00-.267-.338.722.722 0 00-.929.082.742.742 0 00-.216.532z" fill="#9787F9"/><path d="M7.417 23.268a.654.654 0 00-.458.189.683.683 0 00-.203.46.691.691 0 00.183.487c.122.13.29.207.466.212a.668.668 0 00.456-.191.697.697 0 00.207-.457.692.692 0 00-.183-.489.664.664 0 00-.468-.21z" fill="#EF56B6"/><path d="M23.402 6.978a.528.528 0 00-.41.155.55.55 0 00-.162.417.587.587 0 00.17.414.561.561 0 00.409.163.56.56 0 00.409-.168.584.584 0 00.17-.415.573.573 0 00-.173-.413.55.55 0 00-.413-.153z" fill="#F3F4F5"/><path d="M36.113 11.893c-.19.015-.127.195-.187.296-.127.022-.127.144-.17.229a.63.63 0 01-.237.265.61.61 0 01-.34.091c-.263 0-.434-.17-.557-.389-.067-.122-.077-.268-.155-.389-.346-.117-.095.201-.188.269.134.593.532.891 1.08.807.512-.078.785-.506.754-1.178z" fill="#F2F3F3"/><path d="M22.624 7.534v-.39c0-.07.015-.162-.1-.16-.116.003-.127.082-.112.16.032.227-.038.3-.278.306-.267.006-.282-.118-.264-.32.006-.077-.006-.155-.117-.147-.11.008-.103.09-.104.166v.766c0 .077-.006.16.098.174.143.018.133-.095.127-.176-.032-.235.05-.314.287-.302.189.009.279.05.254.259-.01.096-.03.23.127.217.134-.01.076-.13.082-.213.008-.11 0-.22 0-.34z" fill="#F7F7F8"/><path d="M14.874 11.932v-.389c0-.07.011-.166-.1-.166-.11 0-.116.092-.106.165.038.248-.072.292-.294.294-.223.003-.276-.1-.254-.298.007-.072.009-.165-.102-.162-.11.003-.103.095-.104.169v.77c0 .082.013.165.112.165s.101-.099.096-.17c-.015-.192.012-.307.254-.307s.325.07.293.307c-.01.08.01.166.106.17.095.004.101-.09.102-.166a18.098 18.098 0 01-.003-.382z" fill="#EDEDEF"/><path d="M32.56 30.355a.154.154 0 00.072.083.148.148 0 00.108.012c.271-.044.355.083.322.34-.009.076.012.169.105.169.094 0 .105-.1.092-.172-.06-.314.103-.368.357-.34.072.01.16-.015.16-.115-.002-.1-.1-.104-.167-.092-.316.06-.38-.103-.351-.38.007-.055.014-.129-.073-.148a.078.078 0 00-.071.011.083.083 0 00-.034.065c.018.325-.062.537-.445.457-.044-.01-.083.045-.074.11z" fill="#ECEDEF"/><path d="M15.492 12.518c.247-.037.454-.122.542-.368a.556.556 0 00-.136-.631.581.581 0 00-.662-.098c-.064.027-.166.056-.127.152.055.159.156.05.237.018a.36.36 0 01.426.1.38.38 0 01.031.445.353.353 0 01-.428.153c-.095-.022-.228-.168-.264.024-.024.13.151.138.254.176a.863.863 0 00.127.028z" fill="#EFF0F1"/><path d="M20.896 28.468c.146-.035.164-.103.155-.164-.038-.287.048-.437.36-.38.03.01.062.006.09-.008a.129.129 0 00.063-.069c.02-.06-.015-.096-.06-.12-.14-.076-.349.085-.438-.11-.058-.13.03-.302-.06-.421-.095-.016-.128.031-.128.08.012.282-.012.518-.393.438a.105.105 0 00-.116.058.112.112 0 00-.011.046c0 .033.066.103.088.098.474-.12.417.262.45.552zM5.946 15.932c.013.097.102.092.17.084.253-.031.371.063.334.336-.01.073 0 .175.09.183.136.01.114-.115.105-.193-.027-.239.042-.363.3-.325.08.012.202.026.213-.089.011-.139-.127-.11-.195-.1-.275.042-.35-.088-.318-.344.009-.066.028-.163-.078-.183a.092.092 0 00-.086.027.096.096 0 00-.024.089c.05.338-.092.466-.414.414-.05-.008-.097.02-.097.1z" fill="#F1F1F3"/><path d="M7.514 30.643c.254-.021.395-.165.39-.398a.373.373 0 00-.11-.28.356.356 0 00-.278-.1.377.377 0 00-.27.114.395.395 0 000 .551.376.376 0 00.27.114l-.002-.001z" fill="#EEEFF0"/><path d="M28.734 9.83c0 .105.087.11.156.1.27-.037.408.051.36.352-.012.07-.014.173.096.168.11-.005.092-.11.083-.177-.036-.268.067-.38.332-.342.068.009.168.022.18-.083.01-.105-.09-.112-.16-.102-.28.046-.395-.066-.352-.358.009-.065.02-.168-.093-.167-.085 0-.096.082-.086.14.054.336-.103.43-.399.39a.096.096 0 00-.102.043.101.101 0 00-.015.037zm12.506 1.776c-.117.04-.089.145-.08.223.025.224-.041.336-.284.306-.082-.01-.234-.056-.226.105 0 .118.14.087.215.077.273-.04.316.11.294.336-.006.07-.025.175.072.187.14.017.118-.112.108-.187-.036-.277.08-.369.337-.335.063.008.165.025.171-.084.006-.11-.091-.11-.16-.1-.284.046-.388-.075-.348-.358.01-.068.012-.16-.1-.17z" fill="#FEFEFE"/><path d="M18.095 19.919l-.215.009.161.992.215-.013c-.055-.33-.11-.659-.162-.988z" fill="#ECECEE"/><path d="M21.073 23.79a.158.158 0 00.087-.063.164.164 0 00.028-.106l-.914-.316c-.075.05-.058.13-.067.206l.866.279z" fill="#F3F1F4"/><path d="M13.707 12.18a.968.968 0 00-.495-.036c.013.118.254.234 0 .352-.075.035-.05.18.025.237a.39.39 0 00.497 0c-.049-.166-.127-.064-.192-.064a.19.19 0 01-.197-.081c.276.01.104-.373.362-.408z" fill="#D2D3D7"/><path d="M16.265 24.556l.11.158.695-.592-.105-.16-.7.594z" fill="#EFEFF0"/><path d="M47.331 47.95c.027.086-.014.198.1.246 1.567 0 3.135-.02 4.697 0 .294 0 .39-.08.414-.373.288-3.669-.093-7.282-.834-10.868a.313.313 0 00-.058-.096c-.067.713-.158 1.427-.447 2.087-.421.972-1.157 1.212-2.03.648-.919-.595-1.553-1.473-2.203-2.334-.228-.302-.395-.648-.667-.918.178.77.366 1.538.53 2.31.319 1.566.522 3.154.608 4.75a28.363 28.363 0 01-.11 4.548z" fill="#3EAAAF"/><path d="M46.315 21.382c.163-.036.281-.13.271-.311a.285.285 0 00-.094-.225.271.271 0 00-.232-.062.265.265 0 00-.198.102.279.279 0 00-.056.22.3.3 0 00.099.203.288.288 0 00.21.073z" fill="#FDF9F6"/><path d="M53.306 34.948c-.263-.328-.52-.665-.903-.864v.08c.34.216.517.625.903.784z" fill="#E0E5D6"/><path d="M5.176 7.447a.58.58 0 00.46-.173.606.606 0 00.175-.468.643.643 0 00-.17-.473.617.617 0 00-.455-.194.693.693 0 00-.45.204.722.722 0 00-.206.457.646.646 0 00.186.467.618.618 0 00.46.18z" fill="#CBCBCB"/><path d="M2.4 7.063c.285-.037.465-.194.465-.492 0-.299-.224-.448-.478-.495-.219-.04-.508.288-.488.53.027.3.215.44.5.457zm.464 3.197c.046.237.164.42.414.408a.382.382 0 00.291-.12.4.4 0 00.11-.301c-.013-.222-.138-.426-.407-.409-.247.02-.369.18-.408.422zm1.508-1.519c.057.223.172.407.424.389a.396.396 0 00.28-.132.413.413 0 00.07-.452.41.41 0 00-.227-.213.395.395 0 00-.156-.025c-.244.003-.362.182-.39.433z" fill="#CCC"/><path d="M43.438 30.864c-.381.317-.83.475-1.287.618-.02 1.075-.059 2.15-.102 3.222-.024.606-.048 1.22-.108 1.831a3.92 3.92 0 00.183 1.704 3.86 3.86 0 00.89 1.454c.277.29.585.556.878.835.17.16.305.356.396.574.09.218.135.453.13.69.028 1.148-.203 2.264-.437 3.371-.214 1.018.017 1.83.69 2.559.431.464.86.93 1.29 1.395.176.19.382.402.635.349.284-.06.338-.366.41-.633.127-.472.127-.96.186-1.438.127-1.005.093-2.019.082-3.03a29.97 29.97 0 00-.675-5.875 27.744 27.744 0 00-2.455-6.94c-.106-.203-.224-.4-.335-.6l-.371-.085zm8.506 2.765a1.922 1.922 0 01-.447-.454c-.254-.04-.335-.336-.612-.44.197.757.388 1.476.572 2.197a46.91 46.91 0 011.082 5.698 39.22 39.22 0 01.254 3.047c.046.833.056 1.663.046 2.493-.01.685-.098 1.371-.137 2.059-.01.164-.083.389.142.47.203.072.354-.076.494-.208 1.275-1.215 1.434-2.464.8-4.15-.208-.556-.519-1.079-.54-1.702-.018-.528.218-.966.437-1.41.297-.604.507-1.225.47-1.91-.033-.629-.304-1.184-.557-1.738a37.018 37.018 0 00-1.883-3.5c-.073-.132-.204-.264-.121-.452z" fill="#FEFEFE"/><path d="M28.125 33.239l-.151.069c-.381.247-.686.584-1.103.778a3.089 3.089 0 01-2.26.179c-.161-.05-.325-.161-.495-.02.172.519.577.855.94 1.222 1.118.704 2.256.8 3.41.104.677-.409 1.1-1.026 1.34-1.79.081-.26 0-.335-.226-.39a5.734 5.734 0 00-1.455-.152z" fill="#D9AF2C"/><path d="M13.035 5.136c-.18-.157-.396-.036-.59-.08-.53.035-.53.035-.53.574 0 .689.019 1.38 0 2.075-.014.428.106.723.536.83l.17-.065c-.111-.957-.022-1.92-.055-2.878-.02-.376.316-.302.47-.456z" fill="#00E8A7"/><path d="M13.035 5.136a2.22 2.22 0 01-.262 0c-.236-.026-.335.056-.332.318.014.895 0 1.79 0 2.683 0 .139-.025.293.17.33.322-.051.43-.28.43-.575.006-.92-.002-1.838-.006-2.756z" fill="#00CD8B"/><path d="M24.116 34.244c.41.038.777.244 1.203.252 1.076.023 1.976-.313 2.655-1.187-.41-.024-.777.17-1.17.24a6.24 6.24 0 01-2.602-.103c-.358-.087-.395 0-.29.31.036.108.062.22.092.33l.112.158z" fill="#EBC651"/><path d="M44.79 27.555c.087.794-.09 1.544-.363 2.278.525.026 1.052.06 1.574-.059.668-.153.815-.585.352-1.1-.437-.49-.988-.827-1.563-1.119z" fill="#ECB37D"/><path d="M38.073 27.767c.084-.79.424-1.462.91-2.067-.56-.055-1.12-.138-1.68-.01a2.879 2.879 0 00-.291.072c-.545.183-.65.525-.277.978.369.436.825.786 1.338 1.027z" fill="#09112B"/><path d="M25.633 30.476c-.35.084-.71.194-.91.57-.093.178-.126.374.01.541a.508.508 0 00.508.17 1.193 1.193 0 00.825-.55c.1-.153.156-.33.044-.505a.545.545 0 00-.477-.227z" fill="#FDFEFE"/><path d="M33.46 18.722c0 .96.017 1.923-.01 2.883-.01.372.127.403.408.306l.142-.053c.645-.235.68-.286.68-.98V16.65c0-.75-.097-.884-.8-1.093-.396-.118-.42-.103-.42.32v2.845zm-.208.004c0-.974-.012-1.945.008-2.924.008-.315-.114-.335-.346-.26-.24.076-.47.183-.682.318a.386.386 0 00-.193.38c0 1.656.012 3.31 0 4.965 0 .369.254.444.473.56.685.356.744.314.744-.456l-.004-2.583z" fill="#09112B"/><path d="M27.622 15.964v5.525c.39-.144.966-.935.968-1.33 0-.808-.059-1.621.016-2.421.08-.85-.454-1.29-.984-1.774zm11.738 5.353v-5.168c-.456.457-.96.733-.899 1.462.052.716.052 1.435 0 2.151a1.3 1.3 0 00.09.65c.086.205.222.383.397.517.125.104.236.222.412.388z" fill="#09122B"/><path d="M34.903 21.304c.285-.242.55-.509.79-.798a.636.636 0 00.156-.452c0-.883-.013-1.766 0-2.65 0-.251-.12-.404-.263-.566-.2-.248-.431-.47-.687-.658l.004 5.124z" fill="#09132C"/><path d="M31.808 16.212c-.288.252-.55.534-.782.84a.568.568 0 00-.1.395c0 .743.031 1.486-.008 2.227a1.343 1.343 0 00.454 1.149c.137.13.235.293.436.389v-5z" fill="#09122B"/><path d="M38.279 20.027v-2.594l-.068-.05c-.3.424-.599.848-.902 1.27-.061.086 0 .147.036.204.284.404.572.803.859 1.204l.075-.034z" fill="#09152D"/><path d="M36.056 17.526v2.405l.066.05c.276-.39.553-.788.831-1.18.061-.085 0-.142-.04-.202-.262-.37-.524-.74-.788-1.108l-.07.035z" fill="#0A142C"/><path d="M28.83 20.02a.441.441 0 00.053-.047c.854-1.223.854-1.223-.052-2.554v2.6z" fill="#09122B"/><path d="M30.655 17.547c-.226.35-.45.702-.68 1.05a.228.228 0 00.011.282c.229.35.453.702.733 1.136v-2.43l-.064-.038z" fill="#0A182F"/><path d="M20.043 16.134c.412-.027 1.002.184 1.387-.072.384-.255.523-.82.77-1.248a4.28 4.28 0 01.344-.595c.419-.52.411-.982.017-1.53-.381-.52-.663-1.117-.969-1.686a.402.402 0 00-.167-.19.389.389 0 00-.246-.05c-.83.01-1.658.01-2.485 0a.374.374 0 00-.225.049.387.387 0 00-.156.173c-.412.747-.832 1.49-1.262 2.227a.429.429 0 00.008.492c.421.727.837 1.458 1.242 2.196a.41.41 0 00.168.192.391.391 0 00.247.05c.41-.019.823-.008 1.327-.008zm15.801-4.375a.782.782 0 00.345-.255.807.807 0 00.162-.403 1.94 1.94 0 01.565-1.06c.38-.379.628-.876.705-1.413a2.523 2.523 0 00-.28-1.56 2.476 2.476 0 00-1.139-1.08 2.408 2.408 0 00-1.546-.164 2.447 2.447 0 00-1.332.817 2.537 2.537 0 00-.586 1.47c-.028.354.022.71.145 1.04.124.332.32.631.571.875.311.283.52.664.592 1.083.017.142.07.277.154.39a.79.79 0 00.326.258c.146-.142.113-.33.114-.504V9.335a.578.578 0 01.077-.311.561.561 0 01.23-.22.499.499 0 01.564.05c.171.115.192.287.193.47v1.994c.013.15-.036.334.14.44z" fill="#09112B"/><path d="M34.743 11.845a1 1 0 00.916.006.367.367 0 00.08-.25c0-.768.01-1.537 0-2.305a.542.542 0 00-.144-.387.522.522 0 00-.37-.165c-.293-.008-.516.153-.537.433-.067.854-.065 1.713.007 2.567-.002.037.029.067.048.1z" fill="#0A122C"/><path d="M34.743 11.845c0-.806.01-1.611 0-2.418 0-.32.084-.563.434-.594.292-.026.467.207.47.602 0 .806 0 1.61.009 2.416a.237.237 0 00.189-.093c0-.778 0-1.556-.009-2.344 0-.499-.265-.813-.661-.8-.396.013-.635.32-.635.794-.007.778-.007 1.556-.01 2.344.044.08.133.084.213.093z" fill="#F6F6F7"/><path d="M34.467 11.996c.008.512.243.83.653.881.38.048.675-.2.806-.687-.046-.207-.185-.119-.294-.092a1.745 1.745 0 01-1.165-.102z" fill="#0B132C"/><path d="M18.471 24.475a1.643 1.643 0 001.168-.5c.31-.318.483-.748.483-1.197a1.75 1.75 0 00-.509-1.183 1.678 1.678 0 00-1.168-.495c-.44.007-.858.19-1.166.51a1.724 1.724 0 00-.349 1.846c.085.204.209.39.364.544a1.605 1.605 0 001.177.475zm-8.145-4.762c.028.542.234.929.68 1.157a1.035 1.035 0 001.22-.184 1.19 1.19 0 00.366-.595 1.21 1.21 0 00-.028-.702c-.174-.564-.556-.994-.956-1.405-.064-.067-.134-.13-.222-.032-.493.519-.97 1.044-1.06 1.761zm-4.83 6.191a.94.94 0 00-.66.283.982.982 0 00-.281.672c.008.253.108.493.283.673.174.18.408.286.655.296a.935.935 0 00.676-.291.977.977 0 00.274-.695.964.964 0 00-.282-.67.926.926 0 00-.665-.268z" fill="#09112B"/><path d="M14.757 25.289a.815.815 0 00.227.58.78.78 0 00.567.236.77.77 0 00.56-.253.801.801 0 00.209-.588.816.816 0 00-.227-.58.782.782 0 00-.567-.236.768.768 0 00-.56.253.804.804 0 00-.21.588z" fill="#0A122B"/><path d="M22.07 23.306a.803.803 0 00-.554.248.837.837 0 00-.231.572.858.858 0 00.258.558c.152.147.352.23.56.233a.798.798 0 00.537-.25.813.813 0 00-.006-1.13.78.78 0 00-.563-.231z" fill="#0A112B"/><path d="M17.816 19.713a.783.783 0 00.562-.227.818.818 0 00.242-.565.815.815 0 00-.232-.555.782.782 0 00-1.096-.018.814.814 0 00-.25.547.82.82 0 00.22.573.787.787 0 00.554.245z" fill="#09112C"/><path d="M4.35 25.227a.565.565 0 00.38-.18.589.589 0 00.158-.396.58.58 0 00-.179-.366.557.557 0 00-.371-.153.543.543 0 00-.382.174.567.567 0 00-.151.398.56.56 0 00.544.523z" fill="#0B132E"/><path d="M7.434 24.398c.254-.037.424-.186.418-.474a.428.428 0 00-.126-.33.41.41 0 00-.329-.114.412.412 0 00-.323.132.43.43 0 00-.114.336c.008.273.179.433.474.45z" fill="#0D122E"/><path d="M23.044 7.557c.026.217.127.36.358.36a.36.36 0 00.247-.11.377.377 0 00.012-.513.361.361 0 00-.39-.101.347.347 0 00-.207.212.364.364 0 00-.02.152z" fill="#0E162F"/><path d="M7.344 30.243c.013.106.067.182.164.187a.156.156 0 00.14-.044.166.166 0 00.047-.143.166.166 0 00-.054-.117.157.157 0 00-.12-.04.172.172 0 00-.118.044.182.182 0 00-.059.113z" fill="#19213A"/><path d="M10.732 19.905c.04.378.215.602.541.693.07.02.159.044.188-.056.03-.1-.048-.13-.127-.151a.487.487 0 01-.284-.173.506.506 0 01-.112-.317c0-.08.03-.214-.099-.203-.128.012-.107.144-.107.207z" fill="#8AD8D9"/></g><defs><clipPath id="clip0_135_1726"><path fill="#fff" transform="matrix(-1 0 0 1 60 .734)" d="M0 0h60v48.949H0z"/></clipPath></defs></svg>